# xmcd CD database file
#
# Track frame offsets:
#	150
#	7285
#	23802
#	39647
#	55852
#	81952
#	101165
#	126122
#	157355
#	189030
#	217872
#	239782
#	260675
#	292617
#
# Disc length: 4284 seconds
#
# Revision: 0
# Processed by: cddbd v1.5.1PL0 Copyright (c) Steve Scherf et al.
# Submitted via: CDex 1.51
#
DISCID=c610ba0e
DTITLE=DJ Quicksilver - Escape 2 Planet Love
DYEAR=1900
DGENRE=New Age
TTITLE0=Intro
TTITLE1=Andromeda
TTITLE2=Escape To Paradise (Video Mix)
TTITLE3=Planet Love (Video Mix)
TTITLE4=Adagio (Club Edit)
TTITLE5=Believe
TTITLE6=Timerider (Extended Mix)
TTITLE7=Back On Track
TTITLE8=Cyberia
TTITLE9=Freedom
TTITLE10=Slamdance
TTITLE11=Supernova
TTITLE12=Planet Love (Maxi Version)
TTITLE13=Escape To Paradise (Extended Mix)
EXTD=
EXTT0=
EXTT1=
EXTT2=
EXTT3=
EXTT4=
EXTT5=
EXTT6=
EXTT7=
EXTT8=
EXTT9=
EXTT10=
EXTT11=
EXTT12=
EXTT13=
PLAYORDER=
